<?xml version="1.0" encoding="UTF-8" standalone="no"?>
<!-- Generator: Adobe Illustrator 21.1.0, SVG Export Plug-In . SVG Version: 6.00 Build 0)  -->

<svg
   xmlns:dc="http://purl.org/dc/elements/1.1/"
   xmlns:cc="http://creativecommons.org/ns#"
   xmlns:rdf="http://www.w3.org/1999/02/22-rdf-syntax-ns#"
   xmlns:svg="http://www.w3.org/2000/svg"
   xmlns="http://www.w3.org/2000/svg"
   xmlns:sodipodi="http://sodipodi.sourceforge.net/DTD/sodipodi-0.dtd"
   xmlns:inkscape="http://www.inkscape.org/namespaces/inkscape"
   version="1.1"
   id="Capa_1"
   x="0px"
   y="0px"
   viewBox="0 0 37.051923 40"
   xml:space="preserve"
   sodipodi:docname="map-pin.svg"
   width="37.051922"
   height="40"
   inkscape:version="0.92.2 (5c3e80d, 2017-08-06)"><metadata
     id="metadata155"><rdf:RDF><cc:Work
         rdf:about=""><dc:format>image/svg+xml</dc:format><dc:type
           rdf:resource="http://purl.org/dc/dcmitype/StillImage" /><dc:title></dc:title></cc:Work></rdf:RDF></metadata><defs
     id="defs153" /><sodipodi:namedview
     pagecolor="#ffffff"
     bordercolor="#666666"
     borderopacity="1"
     objecttolerance="10"
     gridtolerance="10"
     guidetolerance="10"
     inkscape:pageopacity="0"
     inkscape:pageshadow="2"
     inkscape:window-width="1600"
     inkscape:window-height="848"
     id="namedview151"
     showgrid="false"
     inkscape:zoom="9.6312057"
     inkscape:cx="23.462499"
     inkscape:cy="25.85"
     inkscape:window-x="-8"
     inkscape:window-y="-8"
     inkscape:window-maximized="1"
     inkscape:current-layer="Capa_1" /><style
     type="text/css"
     id="style108">
	.st0{fill:#7EA4CD;}
	.st1{fill:#FFFFFF;}
</style><g
     id="g177"
     transform="matrix(0.7586782,0,0,0.7586782,-7.6531663,-6.355238)"><path
       id="path110"
       d="m 12.1,59.4 c -1.2,-1.1 -1.9,-2.2 -2,-3.2 -0.1,-1 0.4,-2.1 1.5,-3.4 1,-1.3 2,-2 3,-2 1,-0.1 2.1,0.5 3.4,1.6 1.2,1.1 1.9,2.2 2,3.2 0.1,1 -0.4,2.1 -1.5,3.4 -1.1,1.3 -2.1,2 -3.1,2.1 -1,0 -2.1,-0.5 -3.3,-1.7 z"
       class="st0"
       inkscape:connector-curvature="0"
       style="fill:#7ea4cd" /><g
       id="g148"><path
         id="path112"
         d="M 20.8,50.7 C 14.7,45.1 11.5,40 11.2,35.1 c -0.3,-4.8 2,-10.4 7.2,-16.7 5.1,-6.3 9.9,-9.7 14.5,-10 4.8,-0.3 10.3,2.3 16.4,7.8 6.1,5.6 9.3,10.7 9.6,15.6 0.3,4.8 -2.1,10.4 -7.4,16.8 -5.3,6.4 -10.3,9.7 -15.1,10 -4.3,0.3 -9.5,-2.3 -15.6,-7.9 z"
         class="st0"
         inkscape:connector-curvature="0"
         style="fill:#7ea4cd" /><g
         id="g120"><path
           id="path114"
           d="m 52.8,25.4 c -8.9,-0.5 -17.7,5.1 -21,13.4 5.4,3.6 11.7,3.5 16.8,-0.5 4.4,-3.4 4.7,-7.4 4.2,-12.9 z"
           class="st1"
           inkscape:connector-curvature="0"
           style="fill:#ffffff" /><g
           id="g118"><path
             id="path116"
             d="m 52.8,24.7 c -9.4,-0.3 -17.9,5.1 -21.6,13.7 -0.2,0.4 -0.1,0.8 0.3,1 5.4,3.3 11.7,3.7 16.9,-0.1 4.9,-3.5 5.6,-8.3 5.1,-13.9 -0.1,-0.9 -1.5,-0.9 -1.4,0 0.4,4.3 0.3,8.4 -3,11.6 -2,2 -4.8,3.2 -7.6,3.5 -1.8,0.2 -7,0.2 -8.1,-1.7 -1.6,-2.7 4.7,-7.7 6.7,-9.1 3.8,-2.6 8.2,-3.8 12.7,-3.6 0.9,0.1 0.9,-1.4 0,-1.4 z"
             class="st0"
             inkscape:connector-curvature="0"
             style="fill:#7ea4cd" /></g></g><path
         id="path122"
         d="m 34.6,33.2 c 0,0 -1.8,-3.1 -0.2,-5.6 1,-1.6 2,-2.2 3.2,-3.7 0,1.1 0.7,3.4 0.4,4.6 -0.2,1.5 -1.3,3.1 -3.4,4.7 z"
         class="st1"
         inkscape:connector-curvature="0"
         style="fill:#ffffff" /><g
         id="g130"><path
           id="path124"
           d="m 31.3,30.4 c -4.6,-2.7 -15.5,-1.5 -15.5,-1.5 0,0 0,0.1 0,0.1 v 0 c 0,0 2.3,3.4 4.1,7.8 0.9,2.4 2.9,4.3 5,5.7 4.2,2.8 8.8,2.5 13.7,1.3 h 0.1 C 39,38.4 35.9,33.1 31.3,30.4 Z"
           class="st1"
           inkscape:connector-curvature="0"
           style="fill:#ffffff" /><g
           id="g128"><path
             id="path126"
             d="m 31.4,30 c -4.6,-2.4 -10.7,-2.1 -15.7,-1.6 -0.2,0 -0.4,0.2 -0.3,0.5 0.1,-0.1 0.2,-0.2 0.3,-0.3 -0.2,0.1 -0.3,0.3 -0.2,0.5 2.9,4.3 3.9,9.5 8.1,12.8 1.9,1.5 4,2.5 6.4,2.8 1.4,0.2 2.8,0.2 4.3,0.1 1,-0.1 3.5,-1.1 4.3,-0.8 0.2,0.1 0.5,-0.1 0.5,-0.3 C 39,38 36.2,33.2 31.4,30 31,29.7 30.7,30.4 31,30.6 c 2.2,1.5 4.1,3.2 5.4,5.6 0.6,1 2.8,6.1 2.2,7.1 -0.9,1.6 -8.3,0.9 -9.8,0.5 -4.7,-1.2 -7.4,-4.5 -9.3,-8.7 -0.6,-1.4 -2.6,-6.2 -3.7,-5.9 0.2,-0.1 0.3,-0.2 0.2,-0.4 0.1,0.4 -0.2,0.3 0.9,0.2 1.3,-0.1 2.5,-0.1 3.7,-0.2 3.5,0 7.2,0.1 10.3,1.7 0.6,0.4 1,-0.2 0.5,-0.5 z"
             class="st0"
             inkscape:connector-curvature="0"
             style="fill:#7ea4cd" /></g></g><g
         id="g134"><path
           id="path132"
           d="m 35.9,58.7 c 0.8,-2 1.4,-4.1 1.9,-6.2 0.5,-2.1 0.9,-4.3 1,-6.4 0.1,-2.2 0.1,-4.4 -0.4,-6.5 -0.4,-2.1 -1.3,-4.2 -2.8,-5.8 1.5,1.6 2.6,3.6 3.1,5.8 0.6,2.1 0.7,4.4 0.6,6.6 -0.1,2.2 -0.3,4.4 -0.7,6.6 -0.4,2.2 -0.9,4.3 -1.6,6.4 z"
           class="st1"
           inkscape:connector-curvature="0"
           style="fill:#ffffff" /></g><g
         id="g138"><path
           id="path136"
           d="m 38.1,43.8 c -2.5,-1.2 -5,-2.5 -7.3,-4.1 -2.3,-1.6 -4.5,-3.3 -6.2,-5.5 1.8,2.1 4.1,3.7 6.5,5.1 2.4,1.4 4.9,2.6 7.4,3.7 z"
           class="st0"
           inkscape:connector-curvature="0"
           style="fill:#7ea4cd" /></g><g
         id="g142"><path
           id="path140"
           d="m 37,36.5 c 1.7,-0.4 3.4,-0.9 5.1,-1.5 0.8,-0.3 1.6,-0.7 2.4,-1.2 0.7,-0.5 1.5,-1 2,-1.7 -0.5,0.8 -1.2,1.3 -1.9,1.8 -0.7,0.5 -1.5,0.9 -2.3,1.3 -1.6,0.7 -3.3,1.3 -5,1.8 z"
           class="st0"
           inkscape:connector-curvature="0"
           style="fill:#7ea4cd" /></g><g
         id="g146"><path
           id="path144"
           d="m 34.4,33.2 c 0.3,-1.7 0.9,-3.3 1.4,-4.9 -0.5,1.6 -0.9,3.3 -1.1,4.9 z"
           class="st0"
           inkscape:connector-curvature="0"
           style="fill:#7ea4cd" /></g></g></g></svg>