<?xml version="1.0" encoding="UTF-8" standalone="no"?>
<!-- Created with Inkscape (http://www.inkscape.org/) -->

<svg
   xmlns:dc="http://purl.org/dc/elements/1.1/"
   xmlns:cc="http://creativecommons.org/ns#"
   xmlns:rdf="http://www.w3.org/1999/02/22-rdf-syntax-ns#"
   xmlns:svg="http://www.w3.org/2000/svg"
   xmlns="http://www.w3.org/2000/svg"
   xmlns:sodipodi="http://sodipodi.sourceforge.net/DTD/sodipodi-0.dtd"
   xmlns:inkscape="http://www.inkscape.org/namespaces/inkscape"
   width="250"
   height="250"
   viewBox="0 0 66.145834 66.145833"
   version="1.1"
   id="svg8"
   inkscape:version="0.92.0 r15299"
   sodipodi:docname="favicon.svg">
  <defs
     id="defs2" />
  <sodipodi:namedview
     id="base"
     pagecolor="#ffffff"
     bordercolor="#666666"
     borderopacity="1.0"
     inkscape:pageopacity="0.0"
     inkscape:pageshadow="2"
     inkscape:zoom="0.35"
     inkscape:cx="-364.19942"
     inkscape:cy="-123.81392"
     inkscape:document-units="mm"
     inkscape:current-layer="layer1"
     showgrid="false"
     inkscape:window-width="1600"
     inkscape:window-height="848"
     inkscape:window-x="-8"
     inkscape:window-y="-8"
     inkscape:window-maximized="1"
     inkscape:pagecheckerboard="true"
     units="px" />
  <metadata
     id="metadata5">
    <rdf:RDF>
      <cc:Work
         rdf:about="">
        <dc:format>image/svg+xml</dc:format>
        <dc:type
           rdf:resource="http://purl.org/dc/dcmitype/StillImage" />
        <dc:title></dc:title>
      </cc:Work>
    </rdf:RDF>
  </metadata>
  <g
     inkscape:label="Layer 1"
     inkscape:groupmode="layer"
     id="layer1"
     transform="translate(-59.438493,-102.2555)">
    <g
       id="g4523"
       transform="matrix(0.43969644,0,0,0.43969644,-207.80077,-10.489163)">
      <path
         style="fill:#7ea4cd"
         inkscape:connector-curvature="0"
         class="st0"
         d="m 640.6,383.1 c -18.2,-16.6 -27.8,-32.1 -28.9,-46.6 -1,-14.4 6.1,-31.1 21.4,-50.1 15.3,-19 29.7,-28.9 43.3,-29.9 14.4,-1 30.7,6.8 49,23.4 18.2,16.6 27.8,32.1 28.9,46.6 1,14.4 -6.3,31.1 -22,50.1 -15.7,19 -30.8,29 -45.2,30 -12.8,1 -28.3,-6.9 -46.5,-23.5 z"
         id="path4487" />
      <g
         id="g4497">
        <g
           id="g4495">
          <path
             style="fill:#ffffff"
             inkscape:connector-curvature="0"
             class="st1"
             d="m 673.4,347.6 c 9.7,-24.7 36.4,-41.7 62.9,-40.1 1.6,16.3 0.6,28.3 -12.5,38.6 -15.2,11.9 -38.4,11.5 -54.5,0.9"
             id="path4489" />
          <g
             id="g4493">
            <path
               style="fill:#7ea4cd"
               inkscape:connector-curvature="0"
               class="st0"
               d="m 675.4,348.2 c 9.8,-24 35,-39.8 60.8,-38.6 -0.7,-0.7 -1.4,-1.4 -2.1,-2.1 0.7,7.3 1.2,15 -1,22.2 -2.4,7.7 -8.3,13.8 -15.2,17.8 -14.7,8.4 -33.5,6.6 -47.5,-2.3 -2.3,-1.5 -4.5,2.2 -2.2,3.7 15.3,9.7 35.9,11.4 51.8,2.3 7.1,-4 13.2,-10.2 16.3,-17.8 3.3,-8.2 2.9,-17.2 2.1,-25.9 -0.1,-1.2 -0.9,-2.1 -2.1,-2.1 -27.9,-1.3 -54.4,15.9 -65,41.7 -1,2.5 3.1,3.6 4.1,1.1 z"
               id="path4491" />
          </g>
        </g>
      </g>
      <path
         style="fill:#ffffff"
         inkscape:connector-curvature="0"
         class="st1"
         d="m 681.7,330.8 c 0,0 -5.2,-9.2 -0.6,-16.8 2.9,-4.7 5.9,-6.7 9.7,-11 0.1,3.3 2.1,10.3 1.3,13.9 -0.9,4.3 -4.1,9.1 -10.4,13.9 z"
         id="path4499" />
      <g
         id="g4507">
        <path
           style="fill:#ffffff"
           inkscape:connector-curvature="0"
           class="st1"
           d="m 671.8,322.2 c -13.6,-8.2 -46.5,-4.5 -46.5,-4.5 0,0.1 0.1,0.3 0.1,0.4 v 0 c 0,0 7,10.3 12.2,23.4 2.8,7.1 8.7,12.8 15,17 12.5,8.3 26.5,7.5 41,3.8 l 0.2,0.1 c 1,-16.1 -8.2,-31.9 -22,-40.2 z"
           id="path4501" />
        <g
           id="g4505">
          <path
             style="fill:#7ea4cd"
             inkscape:connector-curvature="0"
             class="st0"
             d="m 672.4,321.3 c -8.2,-4.7 -18.5,-5.3 -27.7,-5.5 -6.4,-0.1 -12.9,0.1 -19.3,0.8 -0.7,0.1 -1.2,0.6 -1,1.4 0,0.1 0.1,0.3 0.1,0.4 0.2,-0.4 0.5,-0.9 0.7,-1.3 0,0 0,0 0,0 -0.6,0.2 -1,1 -0.6,1.6 3,4.4 5.6,9.1 7.9,13.8 4.2,8.3 6.7,16.2 14,22.6 6.2,5.5 13.5,9.3 21.8,10.5 4.1,0.6 8.2,0.6 12.3,0.2 1.7,-0.2 3.5,-0.4 5.2,-0.7 1.7,-0.3 6.5,-2.2 8,-1.7 0.7,0.2 1.3,-0.4 1.4,-1 0.4,-16.9 -8.8,-32.3 -22.8,-41.1 -1.2,-0.7 -2.2,1.1 -1.1,1.8 13.5,8.4 22.2,23.1 21.5,39.2 0.5,-0.3 0.9,-0.7 1.4,-1 -2.3,-0.7 -6.8,1.3 -9.1,1.7 -4.7,0.8 -9.5,1.1 -14.3,0.7 -9.4,-0.9 -17.9,-5.2 -24.6,-11.8 -6.3,-6.2 -8.7,-14.3 -12.6,-22 -2.2,-4.2 -4.5,-8.4 -7.2,-12.4 -0.2,0.5 -0.4,1 -0.6,1.6 0,0 0,0 0,0 0.5,-0.2 0.9,-0.7 0.7,-1.3 0,-0.1 -0.1,-0.3 -0.1,-0.4 -0.3,0.5 -0.7,0.9 -1,1.4 5.6,-0.6 11.3,-0.8 17,-0.8 9.6,0 20.5,0.3 29,5.2 1.1,0.6 2.2,-1.2 1,-1.9 z"
             id="path4503" />
        </g>
      </g>
      <path
         style="fill:#ffffff"
         inkscape:connector-curvature="0"
         class="st1"
         d="m 685.8,406.8 c 2.3,-5.9 4.1,-12.2 5.6,-18.4 1.5,-6.3 2.6,-12.8 3,-19.2 0.4,-6.5 0.3,-13 -1,-19.4 -1.3,-6.4 -4,-12.5 -8.4,-17.4 4.6,4.7 7.7,10.8 9.3,17.2 1.7,6.4 2.1,13.1 1.9,19.7 -0.2,6.6 -1,13.2 -2.2,19.7 -1.1,5.9 -2.5,11.8 -4.4,17.6 -0.2,0.4 -3.8,0.2 -3.8,0.2 z"
         id="path4509" />
      <g
         id="g4513">
        <path
           style="fill:#7ea4cd"
           inkscape:connector-curvature="0"
           class="st0"
           d="m 692.4,362.5 c -3.7,-1.8 -7.5,-3.7 -11.1,-5.7 -3.6,-2 -7.2,-4.2 -10.7,-6.5 -3.5,-2.3 -6.8,-4.8 -10,-7.5 -3.1,-2.7 -6.1,-5.7 -8.6,-9 2.7,3.1 5.8,5.9 9,8.5 3.2,2.6 6.7,4.8 10.3,6.9 3.5,2.1 7.2,4.1 10.9,5.9 3.7,1.8 7.5,3.5 11.3,5.1 z"
           id="path4511" />
      </g>
      <g
         id="g4517">
        <path
           style="fill:#7ea4cd"
           inkscape:connector-curvature="0"
           class="st0"
           d="m 689.1,340.5 c 2.6,-0.5 5.1,-1.2 7.7,-2 2.5,-0.8 5,-1.6 7.5,-2.6 2.5,-1 4.8,-2.1 7.1,-3.5 2.2,-1.4 4.4,-3 6,-5.2 -1.5,2.2 -3.6,4 -5.8,5.5 -2.2,1.5 -4.6,2.8 -7,3.9 -2.4,1.1 -4.9,2.1 -7.4,3 -2.5,0.9 -5.1,1.7 -7.7,2.4 z"
           id="path4515" />
      </g>
      <g
         id="g4521">
        <path
           style="fill:#7ea4cd"
           inkscape:connector-curvature="0"
           class="st0"
           d="m 681.3,330.7 c 0.2,-1.3 0.5,-2.5 0.8,-3.8 0.3,-1.2 0.7,-2.5 1,-3.7 0.7,-2.4 1.6,-4.8 2.5,-7.2 -0.7,2.4 -1.4,4.9 -2,7.3 -0.3,1.2 -0.6,2.5 -0.8,3.7 -0.2,1.2 -0.4,2.5 -0.6,3.7 z"
           id="path4519" />
      </g>
    </g>
  </g>
  <style
     id="style4485"
     type="text/css">
	.st0{fill:#7EA4CD;}
	.st1{fill:#FFFFFF;}
	.st2{fill:#9D335B;}
	.st3{fill:#451848;}
</style>
</svg>
