<?xml version="1.0" encoding="UTF-8" standalone="no"?>
<!-- Created with Inkscape (http://www.inkscape.org/) -->

<svg
   xmlns:dc="http://purl.org/dc/elements/1.1/"
   xmlns:cc="http://creativecommons.org/ns#"
   xmlns:rdf="http://www.w3.org/1999/02/22-rdf-syntax-ns#"
   xmlns:svg="http://www.w3.org/2000/svg"
   xmlns="http://www.w3.org/2000/svg"
   xmlns:sodipodi="http://sodipodi.sourceforge.net/DTD/sodipodi-0.dtd"
   xmlns:inkscape="http://www.inkscape.org/namespaces/inkscape"
   width="171.19846mm"
   height="29.104166mm"
   viewBox="0 0 171.19846 29.104166"
   version="1.1"
   id="svg8"
   inkscape:version="0.92.0 r15299"
   sodipodi:docname="logo.svg">
  <defs
     id="defs2" />
  <sodipodi:namedview
     id="base"
     pagecolor="#ffffff"
     bordercolor="#666666"
     borderopacity="1.0"
     inkscape:pageopacity="0.0"
     inkscape:pageshadow="2"
     inkscape:zoom="0.35"
     inkscape:cx="298.61424"
     inkscape:cy="-123.81391"
     inkscape:document-units="mm"
     inkscape:current-layer="layer1"
     showgrid="false"
     inkscape:window-width="1600"
     inkscape:window-height="848"
     inkscape:window-x="-8"
     inkscape:window-y="-8"
     inkscape:window-maximized="1" />
  <metadata
     id="metadata5">
    <rdf:RDF>
      <cc:Work
         rdf:about="">
        <dc:format>image/svg+xml</dc:format>
        <dc:type
           rdf:resource="http://purl.org/dc/dcmitype/StillImage" />
        <dc:title></dc:title>
      </cc:Work>
    </rdf:RDF>
  </metadata>
  <g
     inkscape:label="Layer 1"
     inkscape:groupmode="layer"
     id="layer1"
     transform="translate(13.121431,-139.29716)">
    <g
       id="g4692"
       transform="matrix(0.73121172,0,0,0.73121172,-3.5268869,45.264301)">
      <g
         transform="matrix(0.26458333,0,0,0.26458333,-75.710119,60.755599)"
         id="g4523">
        <path
           id="path4487"
           d="m 640.6,383.1 c -18.2,-16.6 -27.8,-32.1 -28.9,-46.6 -1,-14.4 6.1,-31.1 21.4,-50.1 15.3,-19 29.7,-28.9 43.3,-29.9 14.4,-1 30.7,6.8 49,23.4 18.2,16.6 27.8,32.1 28.9,46.6 1,14.4 -6.3,31.1 -22,50.1 -15.7,19 -30.8,29 -45.2,30 -12.8,1 -28.3,-6.9 -46.5,-23.5 z"
           class="st0"
           inkscape:connector-curvature="0"
           style="fill:#7ea4cd" />
        <g
           id="g4497">
          <g
             id="g4495">
            <path
               id="path4489"
               d="m 673.4,347.6 c 9.7,-24.7 36.4,-41.7 62.9,-40.1 1.6,16.3 0.6,28.3 -12.5,38.6 -15.2,11.9 -38.4,11.5 -54.5,0.9"
               class="st1"
               inkscape:connector-curvature="0"
               style="fill:#ffffff" />
            <g
               id="g4493">
              <path
                 id="path4491"
                 d="m 675.4,348.2 c 9.8,-24 35,-39.8 60.8,-38.6 -0.7,-0.7 -1.4,-1.4 -2.1,-2.1 0.7,7.3 1.2,15 -1,22.2 -2.4,7.7 -8.3,13.8 -15.2,17.8 -14.7,8.4 -33.5,6.6 -47.5,-2.3 -2.3,-1.5 -4.5,2.2 -2.2,3.7 15.3,9.7 35.9,11.4 51.8,2.3 7.1,-4 13.2,-10.2 16.3,-17.8 3.3,-8.2 2.9,-17.2 2.1,-25.9 -0.1,-1.2 -0.9,-2.1 -2.1,-2.1 -27.9,-1.3 -54.4,15.9 -65,41.7 -1,2.5 3.1,3.6 4.1,1.1 z"
                 class="st0"
                 inkscape:connector-curvature="0"
                 style="fill:#7ea4cd" />
            </g>
          </g>
        </g>
        <path
           id="path4499"
           d="m 681.7,330.8 c 0,0 -5.2,-9.2 -0.6,-16.8 2.9,-4.7 5.9,-6.7 9.7,-11 0.1,3.3 2.1,10.3 1.3,13.9 -0.9,4.3 -4.1,9.1 -10.4,13.9 z"
           class="st1"
           inkscape:connector-curvature="0"
           style="fill:#ffffff" />
        <g
           id="g4507">
          <path
             id="path4501"
             d="m 671.8,322.2 c -13.6,-8.2 -46.5,-4.5 -46.5,-4.5 0,0.1 0.1,0.3 0.1,0.4 v 0 c 0,0 7,10.3 12.2,23.4 2.8,7.1 8.7,12.8 15,17 12.5,8.3 26.5,7.5 41,3.8 l 0.2,0.1 c 1,-16.1 -8.2,-31.9 -22,-40.2 z"
             class="st1"
             inkscape:connector-curvature="0"
             style="fill:#ffffff" />
          <g
             id="g4505">
            <path
               id="path4503"
               d="m 672.4,321.3 c -8.2,-4.7 -18.5,-5.3 -27.7,-5.5 -6.4,-0.1 -12.9,0.1 -19.3,0.8 -0.7,0.1 -1.2,0.6 -1,1.4 0,0.1 0.1,0.3 0.1,0.4 0.2,-0.4 0.5,-0.9 0.7,-1.3 0,0 0,0 0,0 -0.6,0.2 -1,1 -0.6,1.6 3,4.4 5.6,9.1 7.9,13.8 4.2,8.3 6.7,16.2 14,22.6 6.2,5.5 13.5,9.3 21.8,10.5 4.1,0.6 8.2,0.6 12.3,0.2 1.7,-0.2 3.5,-0.4 5.2,-0.7 1.7,-0.3 6.5,-2.2 8,-1.7 0.7,0.2 1.3,-0.4 1.4,-1 0.4,-16.9 -8.8,-32.3 -22.8,-41.1 -1.2,-0.7 -2.2,1.1 -1.1,1.8 13.5,8.4 22.2,23.1 21.5,39.2 0.5,-0.3 0.9,-0.7 1.4,-1 -2.3,-0.7 -6.8,1.3 -9.1,1.7 -4.7,0.8 -9.5,1.1 -14.3,0.7 -9.4,-0.9 -17.9,-5.2 -24.6,-11.8 -6.3,-6.2 -8.7,-14.3 -12.6,-22 -2.2,-4.2 -4.5,-8.4 -7.2,-12.4 -0.2,0.5 -0.4,1 -0.6,1.6 0,0 0,0 0,0 0.5,-0.2 0.9,-0.7 0.7,-1.3 0,-0.1 -0.1,-0.3 -0.1,-0.4 -0.3,0.5 -0.7,0.9 -1,1.4 5.6,-0.6 11.3,-0.8 17,-0.8 9.6,0 20.5,0.3 29,5.2 1.1,0.6 2.2,-1.2 1,-1.9 z"
               class="st0"
               inkscape:connector-curvature="0"
               style="fill:#7ea4cd" />
          </g>
        </g>
        <path
           id="path4509"
           d="m 685.8,406.8 c 2.3,-5.9 4.1,-12.2 5.6,-18.4 1.5,-6.3 2.6,-12.8 3,-19.2 0.4,-6.5 0.3,-13 -1,-19.4 -1.3,-6.4 -4,-12.5 -8.4,-17.4 4.6,4.7 7.7,10.8 9.3,17.2 1.7,6.4 2.1,13.1 1.9,19.7 -0.2,6.6 -1,13.2 -2.2,19.7 -1.1,5.9 -2.5,11.8 -4.4,17.6 -0.2,0.4 -3.8,0.2 -3.8,0.2 z"
           class="st1"
           inkscape:connector-curvature="0"
           style="fill:#ffffff" />
        <g
           id="g4513">
          <path
             id="path4511"
             d="m 692.4,362.5 c -3.7,-1.8 -7.5,-3.7 -11.1,-5.7 -3.6,-2 -7.2,-4.2 -10.7,-6.5 -3.5,-2.3 -6.8,-4.8 -10,-7.5 -3.1,-2.7 -6.1,-5.7 -8.6,-9 2.7,3.1 5.8,5.9 9,8.5 3.2,2.6 6.7,4.8 10.3,6.9 3.5,2.1 7.2,4.1 10.9,5.9 3.7,1.8 7.5,3.5 11.3,5.1 z"
             class="st0"
             inkscape:connector-curvature="0"
             style="fill:#7ea4cd" />
        </g>
        <g
           id="g4517">
          <path
             id="path4515"
             d="m 689.1,340.5 c 2.6,-0.5 5.1,-1.2 7.7,-2 2.5,-0.8 5,-1.6 7.5,-2.6 2.5,-1 4.8,-2.1 7.1,-3.5 2.2,-1.4 4.4,-3 6,-5.2 -1.5,2.2 -3.6,4 -5.8,5.5 -2.2,1.5 -4.6,2.8 -7,3.9 -2.4,1.1 -4.9,2.1 -7.4,3 -2.5,0.9 -5.1,1.7 -7.7,2.4 z"
             class="st0"
             inkscape:connector-curvature="0"
             style="fill:#7ea4cd" />
        </g>
        <g
           id="g4521">
          <path
             id="path4519"
             d="m 681.3,330.7 c 0.2,-1.3 0.5,-2.5 0.8,-3.8 0.3,-1.2 0.7,-2.5 1,-3.7 0.7,-2.4 1.6,-4.8 2.5,-7.2 -0.7,2.4 -1.4,4.9 -2,7.3 -0.3,1.2 -0.6,2.5 -0.8,3.7 -0.2,1.2 -0.4,2.5 -0.6,3.7 z"
             class="st0"
             inkscape:connector-curvature="0"
             style="fill:#7ea4cd" />
        </g>
      </g>
      <g
         transform="matrix(0.26458333,0,0,0.26458333,-103.76768,25.786252)"
         id="g4541">
        <path
           style="fill:#9d335b"
           inkscape:connector-curvature="0"
           class="st2"
           d="m 353.6,508.9 c -1.5,-2 -2.2,-5.3 -2.2,-9.8 v -37.5 c 0,-1.1 -0.2,-1.8 -0.5,-2.3 -0.4,-0.4 -1,-0.7 -1.9,-0.7 h -5.5 l -0.9,-2.9 c 2.3,-2.1 5,-3.9 8,-5.2 3,-1.3 5.6,-2 7.8,-2 1.2,0 2.1,0.3 2.9,1 0.8,0.7 1.1,1.5 1.1,2.6 v 47.4 c 0,2.8 1.2,4.1 3.6,4.1 1.9,0 3.9,-0.8 6.2,-2.5 l 2.3,3.1 c -2.2,2.3 -4.6,4.2 -7,5.6 -2.5,1.4 -4.7,2.1 -6.6,2.1 -3.4,0 -5.8,-1 -7.3,-3 z"
           id="path4525" />
        <path
           style="fill:#7ea4cd"
           inkscape:connector-curvature="0"
           class="st0"
           d="m 352.1,435.5 c -1.8,-1.9 -2.7,-3.6 -2.7,-5.1 0,-1.5 0.9,-3.2 2.6,-5.1 1.7,-1.9 3.3,-2.8 4.7,-2.8 1.5,0 3.2,0.9 5,2.8 1.8,1.9 2.7,3.6 2.7,5.1 0,1.5 -0.9,3.2 -2.7,5.1 -1.8,1.9 -3.4,2.8 -5,2.8 -1.3,0 -2.8,-0.9 -4.6,-2.8 z"
           id="path4527" />
        <path
           style="fill:#9d335b"
           inkscape:connector-curvature="0"
           class="st2"
           d="m 430.9,508.9 c -1.4,-2 -2.1,-5.3 -2.1,-9.8 v -28.9 c 0,-4.1 -0.9,-7.2 -2.7,-9.3 -1.8,-2.1 -4.4,-3.1 -7.9,-3.1 -3.5,0 -6.5,1.4 -9.2,4.1 -2.6,2.8 -4.7,6.6 -6.1,11.6 -1.4,5 -2.1,10.7 -2.1,17.3 0,3.7 0.3,6.8 0.9,9.1 0.6,2.3 1.6,4.5 3,6.6 l 1.5,1.9 -1.5,1.9 h -21.3 l -1.2,-3.7 2.3,-0.7 c 2.1,-0.4 3.5,-1.2 4.2,-2.5 0.7,-1.3 1,-3.5 1,-6.6 v -34 c 0,-1 -0.2,-1.7 -0.5,-2.1 -0.4,-0.4 -1,-0.6 -1.9,-0.6 H 382 l -1.2,-3.2 c 2.3,-2.1 5,-3.9 8,-5.2 3,-1.3 5.7,-2 8,-2 1.2,0 2.1,0.4 2.8,1.1 0.7,0.7 1.1,1.6 1.1,2.7 v 13.2 c 2.1,-5.3 5.2,-9.6 9.4,-13 4.2,-3.4 8.6,-5.1 13.2,-5.1 5.6,0 9.7,1.7 12.4,5.2 2.6,3.5 3.9,9 3.9,16.5 v 29.3 c 0,2.8 1.2,4.1 3.6,4.1 2,0 4,-0.8 6,-2.5 l 2.3,3.1 c -2.1,2.3 -4.3,4.2 -6.8,5.6 -2.5,1.4 -4.8,2.1 -6.8,2.1 -3.2,-0.1 -5.6,-1.1 -7,-3.1 z"
           id="path4529" />
        <path
           style="fill:#9d335b"
           inkscape:connector-curvature="0"
           class="st2"
           d="m 466.5,507.7 c -4,-2.8 -6,-6.5 -6,-11 0,-2.7 1,-4.9 2.9,-6.8 1.9,-1.8 4.3,-2.7 7.3,-2.7 0.6,0 1.2,0.1 1.7,0.4 0.5,0.3 0.8,0.6 0.8,1.1 0,0.3 -0.3,1 -0.8,2.3 -0.5,1.3 -0.8,2.8 -0.8,4.6 0,3.3 1.2,5.8 3.5,7.6 2.4,1.8 5,2.7 8,2.7 3.4,0 6.2,-0.9 8.3,-2.7 2.1,-1.8 3.2,-4.1 3.2,-7 0,-2.6 -1.1,-4.7 -3.4,-6.4 -2.3,-1.7 -5.6,-3.4 -9.8,-5.2 -3.9,-1.7 -7.2,-3.3 -9.8,-4.8 -2.6,-1.5 -4.9,-3.5 -6.8,-6 -1.9,-2.5 -2.8,-5.5 -2.8,-9.1 0,-4.7 2.1,-8.6 6.3,-11.6 4.2,-3 9.5,-4.5 15.8,-4.5 5.8,0 10.6,1.1 14.3,3.3 3.7,2.2 5.6,5.2 5.6,9 0,3.1 -0.9,5.7 -2.8,7.6 -1.9,2 -4.3,2.9 -7.4,2.9 -1.8,0 -2.7,-0.6 -2.7,-1.7 0,-0.4 0.3,-1.2 1,-2.4 0.7,-1.2 1,-2.7 1,-4.3 0,-2.9 -1,-5 -3.1,-6.5 -2.1,-1.5 -4.4,-2.2 -7,-2.2 -3.3,0 -5.9,0.8 -7.8,2.4 -1.9,1.6 -2.9,3.7 -2.9,6.3 0,3 1.2,5.5 3.7,7.4 2.5,1.9 6,3.7 10.6,5.4 3.9,1.7 7.2,3.3 9.8,4.7 2.6,1.4 4.8,3.2 6.6,5.4 1.8,2.2 2.7,4.8 2.7,7.7 0,5.5 -2.2,10 -6.6,13.3 -4.4,3.3 -10.2,5 -17.5,5 -6.1,0 -11.1,-1.4 -15.1,-4.2 z"
           id="path4531" />
        <path
           style="fill:#9d335b"
           inkscape:connector-curvature="0"
           class="st2"
           d="m 527.5,508.9 c -1.5,-2 -2.2,-5.3 -2.2,-9.8 v -37.5 c 0,-1.1 -0.2,-1.8 -0.5,-2.3 -0.4,-0.4 -1,-0.7 -1.9,-0.7 h -5.5 l -0.9,-2.9 c 2.3,-2.1 5,-3.9 8,-5.2 3,-1.3 5.6,-2 7.8,-2 1.2,0 2.1,0.3 2.9,1 0.8,0.7 1.1,1.5 1.1,2.6 v 47.4 c 0,2.8 1.2,4.1 3.6,4.1 1.9,0 3.9,-0.8 6.2,-2.5 l 2.3,3.1 c -2.2,2.3 -4.6,4.2 -7,5.6 -2.5,1.4 -4.7,2.1 -6.6,2.1 -3.4,0 -5.8,-1 -7.3,-3 z"
           id="path4533" />
        <path
           style="fill:#7ea4cd"
           inkscape:connector-curvature="0"
           class="st0"
           d="m 526,435.5 c -1.8,-1.9 -2.7,-3.6 -2.7,-5.1 0,-1.5 0.9,-3.2 2.6,-5.1 1.7,-1.9 3.3,-2.8 4.8,-2.8 1.5,0 3.2,0.9 4.9,2.8 1.8,1.9 2.7,3.6 2.7,5.1 0,1.5 -0.9,3.2 -2.7,5.1 -1.8,1.9 -3.4,2.8 -4.9,2.8 -1.4,0 -2.9,-0.9 -4.7,-2.8 z"
           id="path4535" />
        <path
           style="fill:#9d335b"
           inkscape:connector-curvature="0"
           class="st2"
           d="m 566.3,508.5 c -3.3,-2.3 -6,-5.6 -8,-10 -2,-4.4 -3,-9.8 -3,-16.1 0,-10.4 2.8,-18.7 8.5,-24.7 5.7,-6.1 13.3,-9.1 22.9,-9.1 4.7,0 8.6,0.5 11.5,1.5 v -21.5 c 0,-1 -0.2,-1.7 -0.5,-2.1 -0.4,-0.4 -0.9,-0.6 -1.7,-0.6 h -5.4 l -1.1,-3.1 c 2.2,-2.1 4.9,-3.9 7.9,-5.3 3,-1.4 5.7,-2.1 7.9,-2.1 1.2,0 2.1,0.4 2.8,1.1 0.7,0.7 1.1,1.7 1.1,2.8 v 80.3 c 0,2.5 1.3,3.7 3.9,3.7 2,0 4,-0.7 6,-2.1 l 2.3,3.1 c -2.1,2.4 -4.4,4.3 -6.8,5.7 -2.4,1.4 -4.6,2.1 -6.6,2.1 -3.4,0 -5.8,-1 -7.4,-3 -1.5,-2 -2.3,-5.3 -2.3,-9.8 -3.2,4.7 -6.5,8 -10,10 -3.4,1.9 -7.2,2.9 -11.2,2.9 -3.8,-0.3 -7.4,-1.5 -10.8,-3.7 z m 32.1,-17.1 v -32.8 c -3.5,-2.3 -7.4,-3.5 -11.8,-3.5 -5.8,0 -10.3,2.2 -13.6,6.5 -3.3,4.3 -4.9,10.5 -4.9,18.4 0,7.7 1.3,13.3 3.9,16.9 2.6,3.6 5.9,5.4 9.8,5.4 6.9,0.1 12.4,-3.6 16.6,-10.9 z"
           id="path4537" />
        <path
           style="fill:#9d335b"
           inkscape:connector-curvature="0"
           class="st2"
           d="m 641.6,508 c -4.2,-2.6 -7.4,-6.2 -9.8,-10.9 -2.3,-4.7 -3.5,-10.1 -3.5,-16.3 0,-6.4 1.3,-12.1 3.9,-17 2.6,-4.9 6.3,-8.7 11,-11.4 4.8,-2.7 10.3,-4 16.5,-4 6.6,0 11.7,1.7 15.3,5.2 3.6,3.5 5.4,7.7 5.4,12.6 0,3.4 -0.9,6.6 -2.7,9.8 -1.8,3.1 -4.5,5.7 -8,7.6 -3.5,2 -7.6,2.9 -12.4,2.9 -2.7,0 -5.6,-0.5 -8.7,-1.4 -3.1,-0.9 -4.7,-2.3 -4.7,-4.2 0,-0.7 0.2,-1.3 0.5,-1.9 0.4,-0.5 0.8,-0.8 1.2,-0.8 0.3,0 1.1,0.2 2.5,0.7 1.4,0.5 3.2,0.7 5.4,0.7 4.9,0 8.7,-1.3 11.4,-4 2.7,-2.7 4,-5.9 4,-9.6 0,-3.2 -1,-6 -3.1,-8.3 -2.1,-2.3 -4.9,-3.5 -8.4,-3.5 -5.3,0 -9.3,2.3 -12.2,6.9 -2.9,4.6 -4.3,11.1 -4.3,19.6 0,7.2 1.5,12.9 4.6,16.9 3.1,4.1 7.5,6.1 13.3,6.1 7.1,0 13,-2.3 17.7,-7 0.3,-0.3 0.6,-0.4 1.1,-0.4 0.7,0 1.4,0.4 2.2,1.1 0.8,0.7 1.1,1.5 1.1,2.3 0,0.3 -0.1,0.5 -0.3,0.7 -0.2,0.2 -0.3,0.4 -0.3,0.5 -3,3.6 -6.6,6.3 -10.8,8.1 -4.1,1.8 -8.6,2.7 -13.3,2.7 -5.5,0.2 -10.4,-1.1 -14.6,-3.7 z"
           id="path4539" />
      </g>
      <g
         transform="matrix(0.26458333,0,0,0.26458333,-49.792658,25.786252)"
         id="g4555">
        <path
           style="fill:#451848"
           inkscape:connector-curvature="0"
           class="st3"
           d="m 706.8,508.7 c -1.9,-2.1 -2.8,-5 -2.8,-8.6 v -42.7 h -10.6 c 0,-2.1 0.2,-3.5 0.5,-4.2 0.4,-0.7 1.2,-1.2 2.4,-1.5 4.3,-1.1 7.3,-2.9 9.1,-5.4 1.8,-2.5 3.1,-5.8 4,-9.9 0.2,-1.2 0.6,-2 1.3,-2.3 0.7,-0.3 2.2,-0.5 4.5,-0.5 v 16.3 h 15.7 c 0,1.7 -0.2,3.2 -0.7,4.5 -0.5,1.3 -1.1,2.3 -1.9,2.9 h -13 v 39.2 c 0,2.5 0.3,4.3 1,5.3 0.7,1 1.8,1.5 3.5,1.5 2.4,0 5.1,-1.3 8.2,-3.9 l 2.3,3.2 c -2.1,2.7 -4.5,4.9 -7.5,6.6 -2.9,1.7 -5.7,2.5 -8.2,2.5 -3.4,0.2 -6,-0.9 -7.8,-3 z"
           id="path4543" />
        <path
           style="fill:#451848"
           inkscape:connector-curvature="0"
           class="st3"
           d="m 749.6,508.5 c -3.3,-2.3 -6,-5.6 -8,-10 -2,-4.4 -3,-9.8 -3,-16.1 0,-10.4 2.8,-18.7 8.5,-24.7 5.7,-6.1 13.3,-9.1 22.9,-9.1 3.2,0 7.6,0.5 13.1,1.5 4.1,0.7 7.8,1.2 11.1,1.5 l 1.6,1.5 -1.7,2.3 c -0.6,1.1 -1,1.9 -1.3,2.5 -0.2,0.6 -0.3,1.4 -0.3,2.3 v 39.5 c 0,2.5 1.3,3.7 3.9,3.7 2,0 4,-0.7 6,-2.1 l 2.3,3.1 c -2.1,2.4 -4.4,4.3 -6.8,5.7 -2.4,1.4 -4.6,2.1 -6.6,2.1 -3.4,0 -5.8,-1 -7.4,-3 -1.5,-2 -2.3,-5.3 -2.3,-9.8 -3.2,4.7 -6.5,8 -10,10 -3.4,1.9 -7.2,2.9 -11.2,2.9 -3.8,-0.4 -7.4,-1.6 -10.8,-3.8 z m 32.1,-17.1 v -32.8 c -3.5,-2.3 -7.4,-3.5 -11.8,-3.5 -5.8,0 -10.3,2.2 -13.6,6.5 -3.3,4.3 -4.9,10.5 -4.9,18.4 0,7.7 1.3,13.3 3.9,16.9 2.6,3.6 5.9,5.4 9.8,5.4 6.9,0.1 12.4,-3.6 16.6,-10.9 z"
           id="path4545" />
        <path
           style="fill:#451848"
           inkscape:connector-curvature="0"
           class="st3"
           d="m 820.3,508.9 c -1.5,-2 -2.2,-5.3 -2.2,-9.8 v -70.6 c 0,-1 -0.2,-1.7 -0.5,-2.1 -0.4,-0.4 -1,-0.6 -1.9,-0.6 h -5.2 l -1.2,-3.1 c 2.3,-2.1 5,-3.9 8,-5.3 3,-1.4 5.8,-2.1 8.2,-2.1 1.2,0 2.1,0.4 2.8,1.1 0.7,0.7 1.1,1.7 1.1,2.8 l -0.3,80.3 c 0,1.3 0.3,2.4 0.9,3.1 0.6,0.7 1.5,1.1 2.7,1.1 2.2,0 4.2,-0.8 6,-2.5 l 2.4,3.1 c -2.1,2.3 -4.3,4.2 -6.8,5.6 -2.5,1.4 -4.7,2.1 -6.7,2.1 -3.4,-0.1 -5.8,-1.1 -7.3,-3.1 z"
           id="path4547" />
        <path
           style="fill:#451848"
           inkscape:connector-curvature="0"
           class="st3"
           d="m 861.3,508 c -4.2,-2.6 -7.4,-6.2 -9.8,-10.9 -2.3,-4.7 -3.5,-10.1 -3.5,-16.3 0,-6.4 1.3,-12.1 3.9,-17 2.6,-4.9 6.3,-8.7 11,-11.4 4.8,-2.7 10.3,-4 16.5,-4 6.6,0 11.7,1.7 15.3,5.2 3.6,3.5 5.4,7.7 5.4,12.6 0,3.4 -0.9,6.6 -2.7,9.8 -1.8,3.1 -4.5,5.7 -8,7.6 -3.5,2 -7.6,2.9 -12.4,2.9 -2.7,0 -5.6,-0.5 -8.7,-1.4 -3.1,-0.9 -4.7,-2.3 -4.7,-4.2 0,-0.7 0.2,-1.3 0.5,-1.9 0.4,-0.5 0.8,-0.8 1.2,-0.8 0.3,0 1.1,0.2 2.5,0.7 1.4,0.5 3.2,0.7 5.4,0.7 4.9,0 8.7,-1.3 11.4,-4 2.7,-2.7 4,-5.9 4,-9.6 0,-3.2 -1,-6 -3.1,-8.3 -2.1,-2.3 -4.9,-3.5 -8.4,-3.5 -5.3,0 -9.3,2.3 -12.2,6.9 -2.9,4.6 -4.3,11.1 -4.3,19.6 0,7.2 1.5,12.9 4.6,16.9 3.1,4.1 7.5,6.1 13.3,6.1 7.1,0 13,-2.3 17.7,-7 0.3,-0.3 0.6,-0.4 1.1,-0.4 0.7,0 1.4,0.4 2.2,1.1 0.8,0.7 1.1,1.5 1.1,2.3 0,0.3 -0.1,0.5 -0.3,0.7 -0.2,0.2 -0.3,0.4 -0.3,0.5 -3,3.6 -6.6,6.3 -10.8,8.1 -4.1,1.8 -8.6,2.7 -13.3,2.7 -5.5,0.2 -10.4,-1.1 -14.6,-3.7 z"
           id="path4549" />
        <path
           style="fill:#451848"
           inkscape:connector-curvature="0"
           class="st3"
           d="m 961.6,508.9 c -1.4,-2 -2.1,-5.3 -2.1,-9.8 v -28.9 c 0,-4.1 -0.9,-7.2 -2.7,-9.3 -1.8,-2.1 -4.4,-3.1 -7.9,-3.1 -3.5,0 -6.5,1.4 -9.2,4.1 -2.6,2.8 -4.7,6.6 -6.1,11.6 -1.4,5 -2.1,10.7 -2.1,17.3 0,3.7 0.3,6.8 0.9,9.1 0.6,2.3 1.6,4.5 3,6.6 l 1.5,1.9 -1.5,1.9 h -21.3 l -1.2,-3.7 2.3,-0.7 c 2.1,-0.4 3.5,-1.2 4.2,-2.5 0.7,-1.3 1,-3.5 1,-6.6 v -34 c 0,-1 -0.2,-1.7 -0.5,-2.1 -0.4,-0.4 -1,-0.6 -1.9,-0.6 h -5.2 l -1.2,-3.2 c 2.3,-2.1 5,-3.9 8,-5.2 3,-1.3 5.7,-2 8,-2 1.2,0 2.1,0.4 2.8,1.1 0.7,0.7 1.1,1.6 1.1,2.7 v 13.2 c 2.1,-5.3 5.2,-9.6 9.4,-13 4.2,-3.4 8.6,-5.1 13.2,-5.1 5.6,0 9.7,1.7 12.4,5.2 2.6,3.5 3.9,9 3.9,16.5 v 29.3 c 0,2.8 1.2,4.1 3.6,4.1 2,0 4,-0.8 6,-2.5 l 2.3,3.1 c -2.1,2.3 -4.3,4.2 -6.8,5.6 -2.5,1.4 -4.8,2.1 -6.8,2.1 -3.3,-0.1 -5.7,-1.1 -7.1,-3.1 z"
           id="path4551" />
        <path
           style="fill:#451848"
           inkscape:connector-curvature="0"
           class="st3"
           d="m 999.3,508.7 c -1.9,-2.1 -2.8,-5 -2.8,-8.6 V 457.4 H 986 c 0,-2.1 0.2,-3.5 0.5,-4.2 0.4,-0.7 1.2,-1.2 2.4,-1.5 4.3,-1.1 7.3,-2.9 9.1,-5.4 1.8,-2.5 3.1,-5.8 4,-9.9 0.2,-1.2 0.6,-2 1.3,-2.3 0.7,-0.3 2.2,-0.5 4.5,-0.5 v 16.3 h 15.7 c 0,1.7 -0.2,3.2 -0.7,4.5 -0.5,1.3 -1.1,2.3 -1.9,2.9 h -13 v 39.2 c 0,2.5 0.3,4.3 1,5.3 0.7,1 1.8,1.5 3.5,1.5 2.4,0 5.1,-1.3 8.2,-3.9 l 2.3,3.2 c -2.1,2.7 -4.5,4.9 -7.5,6.6 -2.9,1.7 -5.7,2.5 -8.2,2.5 -3.4,0.2 -6,-0.9 -7.9,-3 z"
           id="path4553" />
      </g>
    </g>
  </g>
  <style
     id="style4485"
     type="text/css">
	.st0{fill:#7EA4CD;}
	.st1{fill:#FFFFFF;}
	.st2{fill:#9D335B;}
	.st3{fill:#451848;}
</style>
</svg>
