<?xml version="1.0" standalone="no"?>
<!DOCTYPE svg PUBLIC "-//W3C//DTD SVG 20010904//EN"
 "http://www.w3.org/TR/2001/REC-SVG-20010904/DTD/svg10.dtd">
<svg version="1.0" xmlns="http://www.w3.org/2000/svg"
 width="110.000000pt" height="110.000000pt" viewBox="0 0 110.000000 110.000000"
 preserveAspectRatio="xMidYMid meet">
<metadata>
Created by potrace 1.11, written by Peter Selinger 2001-2013
</metadata>
<g transform="translate(0.000000,110.000000) scale(0.100000,-0.100000)"
fill="#000000" stroke="none">
<path d="M433 1082 c-91 -32 -197 -128 -296 -268 -97 -135 -128 -267 -89 -377
56 -158 281 -371 448 -424 29 -9 58 -13 67 -10 17 6 56 143 67 236 l7 66 2
-60 c1 -52 -16 -159 -34 -216 -9 -28 21 -24 95 12 114 58 260 222 333 377 28
58 32 78 32 147 0 110 -36 183 -147 301 -180 190 -348 265 -485 216z m180
-374 c3 -25 0 -54 -7 -72 -15 -35 -56 -76 -56 -57 0 7 -4 10 -9 7 -14 -9 -22
40 -11 69 12 31 59 95 70 95 4 0 10 -19 13 -42z m309 -30 c6 -60 -11 -132 -40
-173 -37 -52 -136 -105 -198 -105 -41 0 -44 -2 -45 -27 -1 -22 -3 -19 -9 12
-4 22 -10 52 -14 66 -7 25 -5 28 44 44 28 9 50 19 47 21 -2 2 -25 -3 -52 -13
-48 -16 -49 -16 -67 7 -27 34 -23 46 34 90 84 67 183 108 265 109 29 1 32 -2
35 -31z m-499 -49 c49 -16 120 -79 151 -132 25 -43 53 -134 44 -143 -7 -6 -95
34 -158 71 l-45 26 30 -25 c17 -15 58 -41 92 -58 73 -38 67 -48 -31 -48 -88 0
-132 14 -193 59 -39 30 -59 57 -105 146 -41 79 -53 112 -45 118 17 12 214 1
260 -14z"/>
<path d="M385 470 c10 -11 20 -20 23 -20 3 0 -3 9 -13 20 -10 11 -20 20 -23
20 -3 0 3 -9 13 -20z"/>
</g>
</svg>
