<?xml version="1.0" encoding="UTF-8" standalone="no"?>
<!-- Created with Inkscape (http://www.inkscape.org/) -->

<svg
   xmlns:dc="http://purl.org/dc/elements/1.1/"
   xmlns:cc="http://creativecommons.org/ns#"
   xmlns:rdf="http://www.w3.org/1999/02/22-rdf-syntax-ns#"
   xmlns:svg="http://www.w3.org/2000/svg"
   xmlns="http://www.w3.org/2000/svg"
   xmlns:sodipodi="http://sodipodi.sourceforge.net/DTD/sodipodi-0.dtd"
   xmlns:inkscape="http://www.inkscape.org/namespaces/inkscape"
   width="5.3622398mm"
   height="3.7036622mm"
   viewBox="0 0 5.36224 3.7036623"
   version="1.1"
   id="svg8"
   inkscape:version="0.92.0 r15299"
   sodipodi:docname="logo-imaat14px.svg">
  <defs
     id="defs2" />
  <sodipodi:namedview
     id="base"
     pagecolor="#ffffff"
     bordercolor="#666666"
     borderopacity="1.0"
     inkscape:pageopacity="0.0"
     inkscape:pageshadow="2"
     inkscape:zoom="5.6"
     inkscape:cx="7.901858"
     inkscape:cy="-4.8994603"
     inkscape:document-units="mm"
     inkscape:current-layer="layer1"
     showgrid="false"
     inkscape:window-width="1600"
     inkscape:window-height="848"
     inkscape:window-x="-8"
     inkscape:window-y="-8"
     inkscape:window-maximized="1" />
  <metadata
     id="metadata5">
    <rdf:RDF>
      <cc:Work
         rdf:about="">
        <dc:format>image/svg+xml</dc:format>
        <dc:type
           rdf:resource="http://purl.org/dc/dcmitype/StillImage" />
        <dc:title></dc:title>
      </cc:Work>
    </rdf:RDF>
  </metadata>
  <g
     inkscape:label="Layer 1"
     inkscape:groupmode="layer"
     id="layer1"
     transform="translate(-121.01665,-162.77497)">
    <path
       style="fill:#e6e6e6;fill-rule:evenodd;stroke-width:0.04505204"
       inkscape:connector-curvature="0"
       d="m 122.90848,164.79266 c 0.0958,0 0.17343,0.0777 0.17343,0.17346 0,0.0958 -0.0777,0.17348 -0.17343,0.17348 -0.0959,0 -0.1735,-0.0777 -0.1735,-0.17348 0,-0.0958 0.0777,-0.17346 0.1735,-0.17346 z m 2.03405,-0.36816 c 0.20103,0.24702 0.31532,0.60393 0.26032,0.85531 -0.0365,0.16672 -0.13841,0.35766 -0.35429,0.57896 0.568,-0.29164 1.15586,-0.6376 1.53033,-0.94871 l -0.42834,-0.25526 0.24869,-0.37652 -0.49539,-0.1422 0.11396,-0.42093 -0.52238,-0.0176 -7.4e-4,-0.009 -0.0293,-0.42299 -0.50692,0.10859 -0.17126,-0.40662 -0.45053,0.22583 -0.43929,-0.41839 -0.003,0.002 -0.43612,0.41532 -0.45052,-0.22582 -0.17125,0.40662 -0.50693,-0.1086 -0.0275,0.39753 -0.002,0.0337 -0.52234,0.0176 0.11396,0.42092 -0.49539,0.14221 0.24871,0.37652 -0.42836,0.25526 c 0.37449,0.31105 0.9623,0.65704 1.53036,0.94871 -0.2159,-0.22133 -0.3178,-0.41227 -0.3543,-0.57896 -0.0546,-0.24926 0.0574,-0.60226 0.25527,-0.849 0.16177,-0.20175 0.38101,-0.33254 0.61393,-0.27737 0.39633,0.0939 0.51064,0.14003 0.62876,0.13875 v -3.5e-4 l 0.008,2.7e-4 8.8e-4,-9e-5 0.005,-1.8e-4 v 3.5e-4 c 0.11805,8.8e-4 0.23239,-0.0449 0.62875,-0.13875 0.23047,-0.0546 0.44755,0.073 0.60882,0.2711 z m 0.28752,-0.59979 c 0.058,0.0639 0.0872,0.16057 0.0848,0.27089 -0.002,0.12022 -0.0498,0.26288 -0.17851,0.40957 -0.0444,-0.0682 -0.092,-0.13088 -0.14281,-0.18686 -0.1168,-0.12884 -0.25004,-0.22265 -0.39849,-0.26996 0.096,-0.17288 0.22888,-0.26263 0.3503,-0.29256 0.12603,-0.031 0.22216,-1e-4 0.28478,0.0689 z m -3.05859,-0.006 c -0.0622,0.0639 -0.0937,0.16339 -0.091,0.27762 0.002,0.12021 0.0498,0.26288 0.17851,0.40956 0.0435,-0.067 0.0901,-0.12819 0.13956,-0.18328 0.11756,-0.13069 0.25192,-0.22581 0.40174,-0.27354 -0.096,-0.17288 -0.2289,-0.26262 -0.35033,-0.29256 -0.12186,-0.03 -0.21578,-0.002 -0.27851,0.0622 z m 1.92982,2.36114 c 0.002,0.0105 0.004,0.0201 0.005,0.0306 l 0.0383,-0.0234 c 0.15072,-0.0913 0.32754,-0.17031 0.40244,-0.30024 0.0572,-0.099 0.10182,-0.20831 -0.0169,-0.28343 -0.0458,-0.0105 -0.0882,-0.028 -0.12766,-0.0512 -0.22623,-0.13316 -0.35782,-0.45006 -0.49312,-0.62864 -0.0625,-0.0826 -0.13311,-0.12703 -0.20422,-0.13334 v -7.2e-4 l -0.003,1.4e-4 -0.004,10e-5 -0.008,-2.4e-4 v 7.2e-4 c -0.0713,0.006 -0.14159,0.0506 -0.20422,0.13334 -0.14165,0.18695 -0.2792,0.52554 -0.52557,0.64613 -0.03,0.0147 -0.0617,0.0263 -0.0953,0.0337 -0.11881,0.0751 -0.0741,0.18435 -0.0168,0.28343 0.0722,0.12516 0.239,0.20316 0.38591,0.29037 l 0.0164,0.0105 0.0383,0.0234 c 0.0216,-0.19407 0.2121,-0.29022 0.40128,-0.28858 v 3e-4 l 0.008,-1.6e-4 0.008,1.6e-4 v -3e-4 h 1e-5 c 0.17897,-8.8e-4 0.35926,0.0846 0.39633,0.25813 z m 0.38554,-1.38646 c -0.0958,0 -0.17345,0.0777 -0.17345,0.17344 0,0.0958 0.0777,0.17347 0.17345,0.17347 0.0958,0 0.17347,-0.0777 0.17347,-0.17347 0,-0.0958 -0.0777,-0.17344 -0.17347,-0.17344 z m -0.78153,1.2237 -0.008,1.4e-4 h -2.7e-4 c -0.15642,-0.004 -0.31708,0.0741 -0.31435,0.23453 0.002,0.15533 0.16064,0.23086 0.31448,0.22671 l 0.009,1.3e-4 c 0.15087,8.7e-4 0.30266,-0.0747 0.30527,-0.22684 0.002,-0.158 -0.15282,-0.2362 -0.3068,-0.23466"
       id="path4489" />
  </g>
</svg>
